<svg width="174" height="271" viewBox="0 0 174 271" fill="none" xmlns="http://www.w3.org/2000/svg">
<g id="Group 1000002971">
<path id="Vector 165" d="M78.2779 31.3015C91.23 71.0155 109.136 94.3903 148.849 137.063" stroke="white" stroke-width="2.49264"/>
<path id="Vector 166" d="M61.628 26.666C70.1149 73.0454 102.258 107.059 148.078 157.605" stroke="white" stroke-width="2.49264"/>
<path id="Vector 167" d="M45.655 24.7777C54.5279 88.5094 93.019 111.039 143.445 174.255" stroke="white" stroke-width="2.49264"/>
<path id="Vector 168" d="M30.1362 24.715C27.8309 86.3466 101.815 138.928 136.539 189.524" stroke="white" stroke-width="2.49264"/>
<path id="Vector 169" d="M14.1273 26.7067C15.8803 100.911 87.4251 135.675 126.641 204.553" stroke="white" stroke-width="2.49264"/>
<path id="Vector 170" d="M-2.10914 31.6631C0.0930304 107.696 97.7963 166.081 114.254 217.288" stroke="white" stroke-width="2.49264"/>
<path id="Vector 171" d="M99.833 229.562C82.9892 161.004 -7.04665 125.936 -18.5672 39.5918" stroke="white" stroke-width="2.49264"/>
<path id="Vector 172" d="M-33.4496 50.029C-26.8855 120.144 86.7439 192.064 84.0523 236.343" stroke="white" stroke-width="2.49264"/>
<path id="Vector 173" d="M-47.2156 65.0418C-22.8645 140.479 69.1443 195.417 70.0932 242.68" stroke="white" stroke-width="2.49264"/>
<path id="Vector 174" d="M-58.6875 81.4292C-27.4739 153.242 43.6218 186.178 53.649 246.718" stroke="white" stroke-width="2.49264"/>
<path id="Vector 175" d="M-67.4541 101.029C-32.9874 158.472 28.0227 201.641 37.8887 245.743" stroke="white" stroke-width="2.49264"/>
<path id="Vector 176" d="M-72.0941 121.562C-40.0964 168.95 11.3537 204.774 20.3212 245.22" stroke="white" stroke-width="2.49264"/>
<path id="Vector 177" d="M-71.7468 146.671C-49.7255 177.124 -6.48658 211.089 2.06337 241.944" stroke="white" stroke-width="2.49264"/>
<path id="Vector 164" d="M148.487 115.829C123.794 87.5825 112.607 70.917 98.1087 40.9698" stroke="white" stroke-width="2.49264"/>
</g>
</svg>
