<svg width="36" height="36" viewBox="0 0 36 36" fill="none" xmlns="http://www.w3.org/2000/svg">
<g id="Group 1000008814">
<path id="Vector" fill-rule="evenodd" clip-rule="evenodd" d="M1.29122 20.7024C3.28045 20.7507 4.70864 22.1536 5.1979 23.8454L8.07778 20.9588C7.79685 20.0207 7.65246 19.0345 7.65246 18.0082C7.65246 12.2914 12.2889 7.64899 18.0083 7.64899C23.7198 7.64899 28.3558 12.2914 28.3558 18.0082C28.3558 23.7247 23.7193 28.351 18.0083 28.351C16.9336 28.351 15.9068 28.1907 14.9279 27.8861L12.0402 30.7884C13.7806 31.2216 15.2649 32.6888 15.3049 34.7092C15.321 35.4226 15.8903 36 16.5966 36H18.0083H19.4121C20.1258 36 20.6872 35.423 20.7033 34.7092C20.7833 31.1173 25.3798 29.313 27.9387 31.7669C28.4519 32.2561 29.2621 32.2717 29.7753 31.7669L30.7699 30.7724L31.7645 29.7618C32.2699 29.2647 32.262 28.4553 31.7645 27.9339C29.3178 25.3762 31.1148 20.7902 34.7084 20.7016C35.4225 20.6855 36 20.1242 36 19.4108V18.0078V16.5966C36 15.8911 35.4225 15.3219 34.7084 15.2976C31.1709 15.2254 29.2778 10.6556 31.7245 8.09782C32.2138 7.5847 32.2299 6.767 31.7245 6.26954L30.7299 5.27545L29.7353 4.28136C29.2299 3.78431 28.4197 3.78431 27.9065 4.28136C25.3554 6.72702 20.7833 4.83446 20.7033 1.29084C20.6872 0.585246 20.1258 0 19.4121 0H18.0083H16.5966C15.8907 0 15.321 0.585246 15.3049 1.29084C15.2249 4.85094 10.6763 6.7431 8.10171 4.28136C7.58027 3.78431 6.77006 3.78431 6.27295 4.28136L5.27834 5.27545L4.28373 6.26954C3.77838 6.76659 3.78621 7.58428 4.28373 8.09782C6.7222 10.6556 4.83735 15.2254 1.29163 15.2976C0.593628 15.3215 0 15.8911 0 16.5966V18.0078V19.4108C0 20.125 0.593628 20.6864 1.29122 20.7024Z" fill="#101010"/>
<path id="Vector_2" fill-rule="evenodd" clip-rule="evenodd" d="M8.47854 22.0657L5.36598 25.1683C5.3499 26.1546 5.00502 27.1486 4.24307 27.9346C3.75381 28.456 3.74556 29.2654 4.24307 29.7625L5.23769 30.773L6.24014 31.7675C6.73765 32.2724 7.54786 32.2568 8.06889 31.7675C8.81475 31.0459 9.74542 30.6931 10.6757 30.6449L13.8361 27.4858L15.1195 26.1949C18.1677 27.2373 21.6651 26.5477 24.0953 24.1186C26.3011 21.9136 27.0713 18.8266 26.4134 15.9964L22.8115 19.5965L20.9424 21.4648L20.0839 21.2401L18.3834 20.7913L15.8245 20.1018L15.1426 17.5436L14.6855 15.8518L14.4607 14.9863L16.3298 13.1176L19.9234 9.51751C17.1 8.86014 14.0114 9.63003 11.8056 11.835C9.38322 14.2564 8.68521 17.7682 9.72809 20.807L8.47854 22.0657Z" fill="#F84C03"/>
</g>
</svg>
